<svg xmlns="http://www.w3.org/2000/svg" viewBox="0 0 512 512" width="512" height="512">
  <defs>
    <linearGradient id="glassGradient" x1="0%" y1="0%" x2="100%" y2="100%">
      <stop offset="0%" style="stop-color:#00579c;stop-opacity:1" />
      <stop offset="100%" style="stop-color:#00367d;stop-opacity:1" />
    </linearGradient>
  </defs>
  
  <!-- Glass shape -->
  <path d="M100 80 L412 80 Q432 80 432 100 L432 412 Q432 432 412 432 L100 432 Q80 432 80 412 L80 100 Q80 80 100 80 Z" 
        fill="url(#glassGradient)" stroke="#ffffff" stroke-width="4"/>
  
  <!-- Liquid inside -->
  <path d="M110 110 L402 110 Q412 110 412 120 L412 402 Q412 412 402 412 L110 412 Q100 412 100 402 L100 120 Q100 110 110 110 Z" 
        fill="#4caf50" opacity="0.7"/>
  
  <!-- Bubbles -->
  <circle cx="180" cy="180" r="15" fill="#ffffff" opacity="0.8"/>
  <circle cx="320" cy="220" r="10" fill="#ffffff" opacity="0.6"/>
  <circle cx="240" cy="300" r="12" fill="#ffffff" opacity="0.7"/>
  
  <!-- Analytics graph -->
  <polyline points="160,350 220,290 280,320 340,260 400,290" 
            fill="none" stroke="#ffffff" stroke-width="8" stroke-linecap="round"/>
  
  <!-- Data points -->
  <circle cx="160" cy="350" r="8" fill="#ffffff"/>
  <circle cx="220" cy="290" r="8" fill="#ffffff"/>
  <circle cx="280" cy="320" r="8" fill="#ffffff"/>
  <circle cx="340" cy="260" r="8" fill="#ffffff"/>
  <circle cx="400" cy="290" r="8" fill="#ffffff"/>
</svg>